<?xml version="1.0" encoding="utf-8"?>
<!-- Generator: Adobe Illustrator 25.2.1, SVG Export Plug-In . SVG Version: 6.00 Build 0)  -->
<svg version="1.1" id="圖層_1" xmlns="http://www.w3.org/2000/svg" xmlns:xlink="http://www.w3.org/1999/xlink" x="0px" y="0px"
	 viewBox="0 0 149.15 120.85" style="enable-background:new 0 0 149.15 120.85;" xml:space="preserve">
<style type="text/css">
	.st0{fill:#EA5524;}
</style>
<g>
	<g>
		<g>
			<g>
				<g>
					<path class="st0" d="M41.3,114.76v0.53c-0.01,0.6-0.01,0.98-0.01,1.42c0,0.6,0.01,1.69,0.01,2.3c0.01,0.61,0.01,1.17,0.01,1.68
						c-0.08,0.02-0.38,0.05-0.89,0.08c-0.51,0.03-0.94,0.05-1.29,0.05c-1.45,0-2.76-0.15-3.92-0.45c-1.16-0.3-2.23-0.84-3.21-1.61
						c-0.65-0.51-1.17-1.14-1.56-1.91c-0.39-0.76-0.59-1.64-0.59-2.62c0-1.09,0.27-2.06,0.81-2.91c0.54-0.85,1.31-1.57,2.31-2.15
						c0.81-0.49,1.84-0.93,2.94-1.18c0.49-0.11,1.29-0.3,2.65-0.25c0.06,0,1.43,2.61,1.28,2.61c-0.16,0-0.31,0-0.48,0.01
						c-0.52,0.02-1.06,0.07-1.63,0.15c-0.74,0.11-1.41,0.29-2,0.53c-0.81,0.33-1.45,0.79-1.91,1.4c-0.47,0.6-0.7,1.27-0.7,1.99
						c0,0.8,0.18,1.48,0.55,2.02c0.37,0.55,0.84,0.97,1.41,1.28c0.45,0.24,0.95,0.42,1.49,0.54c0.54,0.12,1.1,0.2,1.68,0.23
						c0-0.12,0-1.03-0.01-1.78c0-0.75-0.01-0.56-0.02-1.96L41.3,114.76z"/>
				</g>
				<g>
					<path class="st0" d="M69.57,115.57c0,1.57,0,2.78-0.01,3.64c0,0.85,0,1.35,0,1.48c-0.1,0.01-0.52,0.04-1.25,0.09
						c-0.73,0.05-1.51,0.07-2.33,0.07c-0.54,0-1.15-0.05-1.85-0.13c-0.69-0.09-1.27-0.23-1.73-0.43c-0.59-0.26-1.05-0.6-1.39-1.02
						s-0.5-0.91-0.5-1.48c0-0.62,0.18-1.14,0.53-1.58c0.36-0.44,0.91-0.8,1.67-1.08c0.51-0.19,1.13-0.34,1.88-0.45
						c0.75-0.11,1.42-0.19,2.02-0.23c-0.02-0.35-0.11-0.63-0.27-0.85c-0.16-0.22-0.44-0.39-0.83-0.52
						c-0.26-0.08-0.54-0.14-0.85-0.18c-0.31-0.04-0.68-0.05-1.11-0.05c-0.22,0-0.42,0-0.6,0.01c-0.15,0-1.04-2.1-1.04-2.1
						c0.13-0.01,0.33-0.01,0.62-0.02c0.28-0.01,0.68-0.01,1.19-0.01c1.09,0,1.99,0.09,2.71,0.28c0.72,0.19,1.33,0.49,1.83,0.92
						c0.46,0.39,0.79,0.87,1,1.43C69.46,113.91,69.57,114.65,69.57,115.57z M66.77,117.34c0-0.21,0-0.44,0-0.72s0-0.56-0.01-0.86
						c-0.19,0.01-0.52,0.04-0.99,0.11c-0.48,0.07-0.9,0.18-1.27,0.34c-0.26,0.1-0.49,0.26-0.71,0.48c-0.21,0.22-0.32,0.49-0.32,0.81
						c0,0.36,0.09,0.65,0.28,0.86c0.19,0.21,0.44,0.38,0.74,0.49c0.22,0.08,0.47,0.13,0.74,0.17c0.28,0.04,0.58,0.06,0.9,0.06
						c0.08,0,0.18,0,0.29,0c0.11,0,0.22-0.01,0.35-0.01c0-0.08,0-0.28,0-0.59S66.77,117.8,66.77,117.34z"/>
				</g>
				<g>
					<path class="st0" d="M78.03,119.99l-0.1,0.77c-0.09,0.01-0.24,0.01-0.45,0.02c-0.21,0.01-0.49,0.01-0.83,0.01
						c-1.56,0-2.74-0.3-3.53-0.89s-1.19-1.48-1.19-2.65c0-0.75,0-1.45,0.01-2.09c0.01-0.64,0.01-1.37,0.01-2.2H71.4
						c-0.58,0-1.05-0.47-1.05-1.05v0c0-0.58,0.47-1.05,1.05-1.05h0.63v-1.15c0-0.78,0.64-1.42,1.42-1.42l0,0
						c0.78,0,1.42,0.64,1.42,1.42v1.15h2.25c0.58,0,1.05,0.47,1.05,1.05v0c0,0.58-0.47,1.05-1.05,1.05h-2.25
						c0,0.14,0,0.42-0.01,0.84c-0.01,0.42-0.01,0.77-0.01,1.04c0,0.21,0,0.47,0.01,0.78c0,0.3,0,0.62,0,0.96
						c0,0.7,0.2,1.22,0.59,1.57c0.34,0.29,0.92,0.46,1.74,0.5c0.14,0.01,0.28,0.01,0.43,0.01
						C77.73,118.65,78.03,119.99,78.03,119.99z"/>
				</g>
				<g>
					<g>
						<path class="st0" d="M59.74,115.76h-6.69c0.01,0.5,0.15,0.95,0.42,1.37c0.27,0.42,0.69,0.76,1.25,1.03
							c0.39,0.17,0.8,0.3,1.24,0.37c0.3,0.05,0.61,0.08,0.95,0.1c0.16,0.01,0.32,0.01,0.48,0.01c0.41,0,1.43,2.06,1.43,2.06
							c-0.13,0.01-0.36,0.03-0.68,0.04c-0.32,0.02-0.68,0.02-1.09,0.02c-1.12,0-2.11-0.12-2.98-0.37c-0.87-0.25-1.61-0.62-2.22-1.12
							c-0.51-0.42-0.93-0.95-1.24-1.57c-0.32-0.62-0.47-1.31-0.47-2.06c0-0.74,0.12-1.41,0.35-1.99c0.23-0.58,0.61-1.14,1.13-1.68
							c0.43-0.44,0.96-0.78,1.6-1.02c0.64-0.24,1.28-0.36,1.94-0.36c0.69,0,1.31,0.1,1.86,0.29c0.55,0.2,1.01,0.49,1.41,0.88
							c0.46,0.46,0.8,1.02,1.01,1.67C59.63,114.1,59.74,114.87,59.74,115.76z M56.97,114.47c-0.06-0.63-0.25-1.13-0.58-1.5
							c-0.33-0.37-0.78-0.56-1.36-0.56c-0.57,0-1.03,0.18-1.4,0.55c-0.37,0.37-0.6,0.87-0.71,1.51H56.97z"/>
					</g>
					<g>
						<path class="st0" d="M58.73,120.77h-1.66c-0.59,0-1.06-0.48-1.06-1.06l0,0c0-0.59,0.48-1.06,1.06-1.06h1.66
							c0.59,0,1.06,0.48,1.06,1.06l0,0C59.79,120.3,59.31,120.77,58.73,120.77z"/>
					</g>
				</g>
				<g>
					<path class="st0" d="M39.97,110.34h-1.99c-0.72,0-1.3-0.58-1.3-1.3v-0.02c0-0.72,0.58-1.3,1.3-1.3h1.99
						c0.72,0,1.3,0.58,1.3,1.3v0.02C41.27,109.76,40.69,110.34,39.97,110.34z"/>
				</g>
				<g>
					<path class="st0" d="M63.69,112.85h-1.66c-0.59,0-1.06-0.48-1.06-1.06l0,0c0-0.59,0.48-1.06,1.06-1.06h1.66
						c0.59,0,1.06,0.48,1.06,1.06l0,0C64.75,112.37,64.27,112.85,63.69,112.85z"/>
				</g>
				<g>
					<path class="st0" d="M77.84,120.78h-1.67c-0.59,0-1.07-0.48-1.07-1.07v0c0-0.59,0.48-1.07,1.07-1.07h1.67
						c0.59,0,1.07,0.48,1.07,1.07v0C78.91,120.3,78.43,120.78,77.84,120.78z"/>
				</g>
				<g>
					<g>
						<path class="st0" d="M44.36,120.69L44.36,120.69c-0.81,0-1.46-0.66-1.46-1.46v-6.91c0-0.81,0.66-1.46,1.46-1.46l0,0
							c0.81,0,1.46,0.66,1.46,1.46v6.91C45.83,120.03,45.17,120.69,44.36,120.69z"/>
					</g>
					<g>
						<path class="st0" d="M45.72,114.36c0,0,0.28-3.8,4.31-3.01C50.03,111.35,50.12,114.87,45.72,114.36z"/>
					</g>
				</g>
			</g>
			<g>
				<path class="st0" d="M92.55,110.44h-9.14c-0.73,0-1.32-0.59-1.32-1.32l0,0c0-0.73,0.59-1.32,1.32-1.32h9.14
					c0.73,0,1.32,0.59,1.32,1.32l0,0C93.87,109.85,93.28,110.44,92.55,110.44z"/>
			</g>
			<g>
				<g>
					<path class="st0" d="M89.56,108.73h-3.18c0.01,1,0.02,3.61,0.02,4.21c0,0.62,0,1.38,0,2.26c0,1.2,0,2.29-0.01,3.28
						c0,0.22,0,0.42,0,0.61c-0.01,0.88,0.7,1.59,1.58,1.59c0.88,0,1.59-0.71,1.58-1.59c0-0.22,0-0.45-0.01-0.7
						c-0.01-1.02-0.01-2.09-0.01-3.18c0-0.97,0-1.76,0.01-2.37C89.54,112.26,89.55,109.68,89.56,108.73z"/>
				</g>
			</g>
			<g>
				<g>
					<path class="st0" d="M121.04,115.76h-6.69c0.01,0.5,0.15,0.95,0.42,1.37c0.27,0.42,0.69,0.76,1.25,1.03
						c0.39,0.17,0.8,0.3,1.24,0.37c0.3,0.05,0.61,0.08,0.95,0.1c0.16,0.01,0.32,0.01,0.48,0.01c0.41,0,1.43,2.06,1.43,2.06
						c-0.13,0.01-0.36,0.03-0.68,0.04s-0.68,0.02-1.09,0.02c-1.12,0-2.11-0.12-2.98-0.37c-0.87-0.25-1.61-0.62-2.22-1.12
						c-0.51-0.42-0.93-0.95-1.24-1.57c-0.32-0.62-0.47-1.31-0.47-2.06c0-0.74,0.12-1.41,0.35-1.99c0.23-0.58,0.61-1.14,1.13-1.68
						c0.43-0.44,0.96-0.78,1.6-1.02c0.64-0.24,1.28-0.36,1.94-0.36c0.69,0,1.31,0.1,1.86,0.29c0.55,0.2,1.01,0.49,1.41,0.88
						c0.46,0.46,0.8,1.02,1.01,1.67C120.93,114.1,121.04,114.87,121.04,115.76z M118.27,114.47c-0.06-0.63-0.25-1.13-0.58-1.5
						c-0.33-0.37-0.78-0.56-1.36-0.56c-0.57,0-1.03,0.18-1.4,0.55c-0.37,0.37-0.6,0.87-0.71,1.51H118.27z"/>
				</g>
				<g>
					<path class="st0" d="M120.03,120.77h-1.66c-0.59,0-1.06-0.48-1.06-1.06l0,0c0-0.59,0.48-1.06,1.06-1.06h1.66
						c0.59,0,1.06,0.48,1.06,1.06l0,0C121.09,120.3,120.62,120.77,120.03,120.77z"/>
				</g>
			</g>
			<g>
				<g>
					<path class="st0" d="M110.61,115.76h-6.69c0.01,0.5,0.15,0.95,0.42,1.37c0.27,0.42,0.69,0.76,1.25,1.03
						c0.39,0.17,0.8,0.3,1.24,0.37c0.3,0.05,0.61,0.08,0.95,0.1c0.16,0.01,0.32,0.01,0.48,0.01c0.41,0,1.43,2.06,1.43,2.06
						c-0.13,0.01-0.36,0.03-0.68,0.04s-0.68,0.02-1.09,0.02c-1.12,0-2.11-0.12-2.98-0.37c-0.87-0.25-1.61-0.62-2.22-1.12
						c-0.51-0.42-0.93-0.95-1.24-1.57c-0.32-0.62-0.47-1.31-0.47-2.06c0-0.74,0.12-1.41,0.35-1.99c0.23-0.58,0.61-1.14,1.13-1.68
						c0.43-0.44,0.96-0.78,1.6-1.02c0.64-0.24,1.28-0.36,1.94-0.36c0.69,0,1.31,0.1,1.86,0.29c0.55,0.2,1.01,0.49,1.41,0.88
						c0.46,0.46,0.8,1.02,1.01,1.67C110.51,114.1,110.61,114.87,110.61,115.76z M107.85,114.47c-0.06-0.63-0.25-1.13-0.58-1.5
						c-0.33-0.37-0.78-0.56-1.36-0.56c-0.57,0-1.03,0.18-1.4,0.55c-0.37,0.37-0.6,0.87-0.71,1.51H107.85z"/>
				</g>
				<g>
					<path class="st0" d="M109.6,120.77h-1.66c-0.59,0-1.06-0.48-1.06-1.06l0,0c0-0.59,0.48-1.06,1.06-1.06h1.66
						c0.59,0,1.06,0.48,1.06,1.06l0,0C110.66,120.3,110.19,120.77,109.6,120.77z"/>
				</g>
			</g>
			<g>
				<path class="st0" d="M95.58,120.69L95.58,120.69c-0.81,0-1.46-0.66-1.46-1.46v-6.91c0-0.81,0.66-1.46,1.46-1.46l0,0
					c0.81,0,1.46,0.66,1.46,1.46v6.91C97.05,120.03,96.39,120.69,95.58,120.69z"/>
			</g>
			<g>
				<path class="st0" d="M96.94,114.36c0,0,0.28-3.8,4.31-3.01C101.25,111.35,101.34,114.87,96.94,114.36z"/>
			</g>
			<g>
				<path class="st0" d="M40.25,115.81h-3.61c-0.58,0-1.05-0.47-1.05-1.05l0,0c0-0.58,0.47-1.05,1.05-1.05h3.61
					c0.58,0,1.05,0.47,1.05,1.05l0,0C41.3,115.33,40.83,115.81,40.25,115.81z"/>
			</g>
		</g>
		<g>
			<g>
				<g>
					<path class="st0" d="M84.45,46.19c-0.25-0.14-0.47-0.27-0.67-0.39c-0.23-0.13-0.48-0.2-0.73-0.2c-0.18,0-0.35,0.04-0.52,0.1
						c-0.19,0.07-0.37,0.18-0.52,0.34l-0.35,0.37l-0.94,0.99c-0.54,0.57-0.51,1.45,0.01,1.98c0.08,0.08,0.17,0.15,0.26,0.21
						c0.61,0.38,1.42,0.84,2.37,1.35c0.69,0.36,1.47,0.75,2.34,1.15c0.57,0.26,1.17,0.52,1.8,0.79c5.26,2.2,12.82,4.41,21.83,4.56
						c0.13,0,0.27,0.01,0.4,0.01c0.17,0,0.33,0.01,0.5,0.01c0.53,0,1.07-0.02,1.62-0.03c0.15,0,0.3,0,0.45-0.01
						c0.15-0.78,0.55-1.51,1.18-2.06l0.06-0.05l0.07-0.04l0.59-0.35l0.32-0.18l0.07-0.04l0.07-0.03c0.25-0.09,0.52-0.14,0.78-0.17
						l-0.23-0.86c-0.12-0.45-0.52-0.77-0.97-0.81c-0.03,0-0.05-0.01-0.08-0.01c-0.03,0-0.06,0-0.09,0c-0.5,0.04-1,0.07-1.5,0.1
						c-0.27,0.01-0.54,0.03-0.82,0.04c-0.18,0.01-0.35,0.01-0.53,0.01c-0.32,0.01-0.63,0.02-0.95,0.02c-9.7,0-18.25-3.11-23.2-5.46
						C86.05,47.04,85.15,46.58,84.45,46.19z"/>
				</g>
				<g>
					<path class="st0" d="M94.09,23.96c0.76-0.25,3.68-0.94,4.15-2.67c0.34-1.24-3.1-7.43-3.48-7.45c0,0,0.75,6.74,0.54,7.17
						C95.08,21.45,93.36,24.2,94.09,23.96z"/>
				</g>
				<g>
					<path class="st0" d="M116.57,60.83c0.12-0.03,0.25-0.06,0.37-0.11l0.7-0.41c0.5-0.39,0.82-0.93,0.97-1.52
						c0.05-0.19,0.08-0.39,0.09-0.59c0.02-0.52-0.09-1.04-0.37-1.53c-0.18-0.31-0.42-0.56-0.69-0.77c-0.2-0.16-0.41-0.29-0.64-0.39
						c-0.22-0.1-0.45-0.16-0.69-0.2c-0.14-0.02-0.28-0.05-0.43-0.05c-0.07,0-0.15,0.01-0.22,0.02c-0.24,0.02-0.49,0.06-0.72,0.14
						l-0.52,0.3l-0.39,0.23c-0.44,0.38-0.73,0.87-0.87,1.41c-0.05,0.2-0.09,0.41-0.1,0.62c-0.01,0.2,0,0.41,0.04,0.61
						c0.06,0.31,0.17,0.62,0.34,0.92c0.39,0.67,1.01,1.11,1.7,1.3c0.24,0.06,0.49,0.1,0.74,0.1
						C116.11,60.93,116.34,60.89,116.57,60.83z"/>
				</g>
				<g>
					<path class="st0" d="M76.46,4.08c-2.35,0-4.67,0.15-6.95,0.42c-3.3-2.27-7.16-3.82-11.06-4.33c-3.19-0.41-6.56-0.07-9.75,0.99
						c-2.49,0.83-4.27,2.25-5.85,3.51l-0.72,0.57c-0.86,0.67-1.38,0.95-1.77,0.96c-1.23,0.02-2.43,0.11-3.66,0.21l-0.85,0.07
						c-0.31,0.03-0.61,0.1-0.88,0.21c-0.01,0-0.01,0-0.02,0l-2.68,0.25c-0.61,0.05-1.21,0.11-1.81,0.17l-2.53,0.25
						c-2.38,0.27-3.52,1.63-4.06,2.72c-0.6,1.22-0.77,2.46-0.88,3.19c-0.09,0.62-0.18,1.24-0.28,1.86l-0.09,0.56
						c-0.25,0.45-0.39,0.96-0.38,1.49l0.02,1.43c0.04,3,0.86,5.79,2.5,8.54c0.73,1.22,1.6,2.29,2.57,3.24
						c-6.23,9.35-9.87,20.57-9.87,32.65c0,12.14,3.67,23.42,9.96,32.8c0.96-0.35,1.93-0.7,2.9-1.03c0,0,0,0,0,0
						c0.39-0.13,0.78-0.26,1.17-0.39c1.02-0.34,2.05-0.67,3.08-0.98c0,0,0,0,0,0l0,0c0.02-0.2,0.05-0.41,0.06-0.61
						c0.18-1.98,0.19-4-0.19-5.96c-0.39-1.96-1.21-3.81-1.78-5.72c-0.63-2.1-1.25-4.22-1.63-6.38c-1.46-8.08-0.71-17.17,4.69-23.72
						c2.3-2.79,5.37-4.99,6.86-8.39c1.27-2.91,1.21-6.26-0.44-9.02c-1.46-2.44-3.81-2.64-6.34-3.2c-3.25-0.72-5.82-2.53-7.53-5.39
						c-1.24-2.08-1.89-4.21-1.92-6.5c0.64,0.15,1.3,0.25,1.97,0.29c2.84,0.15,5.37-1.18,6.92-3.55c0.95-1.45,1.46-3.12,1.79-4.82
						c1.13-0.09,2.27-0.18,3.41-0.2c1.64-0.03,2.93-0.83,4.2-1.82c1.72-1.34,3.23-2.72,5.34-3.42c2.54-0.85,5.28-1.16,7.93-0.82
						c4.78,0.62,9.66,3.16,12.88,6.77c0.13,0.14,0.25,0.29,0.37,0.43c0.8,0.98,1.46,2.07,1.98,3.23c0.58,1.27,0.99,2.61,1.28,3.98
						c0.26,0.75,0.21,1.66,0.27,2.45c0.07,0.87,0.13,1.75,0.21,2.62c0.12,1.41,0.44,2.83,0.75,4.2c0.53,2.32,1.12,4.8-0.2,6.97
						c-1.31,2.15-3.43,3.74-5.55,5.03c-1.28,0.78-2.8,1.57-3.94,2c-2.14,0.8-4.89,1.46-6.61-0.44c-1.32-1.45-1.57-3.63-1.83-5.48
						c-0.32-2.23-0.45-4.49-0.38-6.75c0.17-5.16,1.54-10.22,3.2-15.08c0.87-2.53-2.46-3.27-3.25-0.96
						c-2.16,6.29-3.77,12.79-3.56,19.49c0.08,2.65,0.37,5.4,1.06,7.97c0.52,1.95,1.59,3.91,3.38,4.96c3,1.77,6.66,0.75,9.62-0.55
						c2.1-0.92,4.32-2.14,6.3-3.66c1.08,1.14,2.06,2.35,3.21,3.86c0.13,0.17,0.26,0.34,0.39,0.52c0.15,0.2,0.31,0.41,0.47,0.62
						c0.21,0.29,0.44,0.59,0.67,0.9c0.17,0.23,0.33,0.45,0.51,0.69c0.08-0.53,0.31-1.03,0.69-1.43l1.09-1.14l0.2-0.21
						c0.19-0.2,0.42-0.36,0.67-0.49c0.39-0.21,0.81-0.33,1.26-0.33c0.36,0,0.71,0.1,1.04,0.24c-0.15-0.77-0.27-1.6-0.34-2.49
						c-0.02-0.2-0.03-0.41-0.04-0.62c-0.29-4.82,0.7-11.03,5.18-16.17c0.98-1.12,1.43-14.98,6.33-13.85
						c2.77,0.64,6.15,9.69,6.15,9.69c0.97-0.05,1.77,0.02,2.39,0.07c2.47,0.17,5.76,0.71,7.94,1.91c2.28,1.26,4.37,2.95,5.42,5.4
						c0.61,1.43,0.82,2.99,0.92,4.53c0.1,1.47,0.29,2.84,1.29,4.01c0.45,0.53,0.97,1.02,1.33,1.62c0.37,0.6,0.57,1.34,0.34,2
						c-0.09,0.26-0.25,0.5-0.36,0.75c-0.47,1.01-0.34,2.22-0.81,3.23c-0.51,1.1-1.05,2.13-1.89,3.02c-0.4,0.42-0.86,0.76-1.26,1.17
						c-0.09,0.09-0.17,0.18-0.26,0.27c-0.15,0.15-0.29,0.31-0.43,0.47c-0.53,0.62-0.99,1.28-1.32,2.01l-0.01,0.02
						c0.27,0.06,0.53,0.17,0.76,0.31c0.48,0.31,0.85,0.78,1.01,1.37l0.33,1.25c0.16,0.04,0.31,0.09,0.46,0.14
						c0.76,0.29,1.41,0.83,1.83,1.55c0.14,0.25,0.24,0.5,0.32,0.77c0.15,0.5,0.19,1.01,0.12,1.51c-0.04,0.32-0.12,0.64-0.25,0.95
						c-0.23,0.55-0.59,1.05-1.08,1.44l-0.05,0.04l-0.05,0.03l-0.7,0.41l-0.05,0.03l-0.05,0.02c-0.12,0.05-0.25,0.07-0.37,0.11
						c0.28,0.77,0.54,1.58,0.78,2.42c0.04,0.14,0.07,0.28,0.11,0.42c1.35,4.91,1.97,10.78,1.16,16.79
						c-0.61,4.59-1.68,8.8-3.12,12.45c-0.04-0.01,5,1.56,7.17,2.34c0.64,0.23,1.28,0.46,1.91,0.7c6.64-9.54,10.55-21.13,10.55-33.64
						C135.43,30.48,109.03,4.08,76.46,4.08z M33.51,12.31c-0.48,1.29-1.45,2.58-2.69,3.22c-0.62,0.32-1.13,0.42-1.81,0.46
						c0.01,0-0.34,0-0.39,0c-0.2-0.01-0.4-0.02-0.6-0.04c-0.37-0.03-0.74-0.08-1.09-0.14c-0.05-0.01-0.11-0.02-0.16-0.03
						c0.11-0.65,0.2-1.3,0.29-1.95c0.09-0.66,0.19-1.35,0.49-1.95c0.19-0.38,0.48-0.43,0.87-0.48c0.27-0.03,0.55-0.06,0.82-0.09
						c0.55-0.06,1.09-0.11,1.64-0.16c1.01-0.1,2.02-0.18,3.03-0.28C33.83,11.35,33.7,11.82,33.51,12.31z"/>
				</g>
			</g>
			<g>
				<path class="st0" d="M149.15,113.86c-9.66-8.33-38.48-22.66-74.8-22.66S13.28,105.28,0,113.86
					C36.87,95.68,114.97,96.14,149.15,113.86z M60.05,81.51c1.3,0,2.52-0.35,3.57-0.95c1.3,1.25,3.06,2.02,5,2.02
					c0.83,0,1.62-0.14,2.36-0.4v-3.91h-6.11v-7.17h6.11v-5.41h7.17v5.41h6.19v7.17h-6.19v3.81c0.78,0.29,1.62,0.45,2.49,0.45
					c1.87,0,3.58-0.72,4.86-1.89c1.06,0.61,2.28,0.96,3.58,0.96c3.98,0,7.22-3.25,7.22-7.22c0-3.3-2.24-6.1-5.28-6.96
					c0.1-0.47,0.15-0.96,0.15-1.46c0-3.98-3.24-7.22-7.22-7.22c-0.74,0-1.45,0.11-2.12,0.32c-0.25-3.75-3.39-6.74-7.21-6.74
					c-3.86,0-7.03,3.06-7.21,6.87c-0.79-0.3-1.64-0.46-2.54-0.46c-3.98,0-7.22,3.24-7.22,7.22c0,0.51,0.05,1,0.15,1.48
					c-2.89,0.95-4.98,3.67-4.98,6.87C52.83,78.26,56.08,81.51,60.05,81.51z M72.07,89.2l2.5-2.75l2.5,2.75h5.83l-6.26-6.87
					l-0.02-5.64l6.2-0.02l-0.01-4.11l-6.2,0.02L76.6,67.2l-4.11,0.01l0.02,5.38l-6.12,0.02l0.01,4.11l6.12-0.02l0.02,5.58l-6.3,6.91
					H72.07z"/>
			</g>
		</g>
	</g>
</g>
</svg>
